<?xml version="1.0" standalone="no"?>
<!DOCTYPE svg PUBLIC "-//W3C//DTD SVG 20010904//EN"
 "http://www.w3.org/TR/2001/REC-SVG-20010904/DTD/svg10.dtd">
<svg version="1.0" xmlns="http://www.w3.org/2000/svg"
 width="128.000000pt" height="128.000000pt" viewBox="0 0 128.000000 128.000000"
 preserveAspectRatio="xMidYMid meet">
<metadata>
Created by potrace 1.13, written by Peter Selinger 2001-2015
</metadata>
<g transform="translate(0.000000,128.000000) scale(0.100000,-0.100000)"
fill="#000000" stroke="none">
<path d="M855 1233 c-83 -23 -91 -24 -116 -9 -34 20 -71 20 -138 0 -41 -12
-57 -23 -72 -49 -19 -31 -27 -35 -136 -62 -64 -15 -127 -36 -140 -46 -46 -37
-19 -117 40 -117 55 0 715 175 737 195 26 23 26 69 0 95 -26 26 -63 25 -175
-7z"/>
<path d="M284 871 c-55 -34 -56 -45 -19 -429 35 -370 38 -387 91 -410 17 -8
113 -12 299 -12 l273 0 30 25 c17 14 33 38 36 53 7 33 56 636 56 687 0 29 -8
45 -34 71 l-34 34 -334 0 c-310 0 -335 -1 -364 -19z m188 -108 c17 -15 18 -37
18 -291 0 -242 -2 -278 -17 -294 -20 -22 -51 -23 -75 -1 -17 15 -18 37 -18
291 0 242 2 278 17 294 20 22 51 23 75 1z m198 -3 c19 -19 20 -33 20 -292 0
-239 -2 -274 -17 -290 -20 -22 -56 -23 -77 -2 -14 13 -16 54 -16 291 0 243 2
279 17 295 21 24 48 23 73 -2z m200 0 c19 -19 20 -33 20 -288 0 -226 -2 -271
-16 -290 -17 -25 -51 -29 -80 -8 -18 14 -19 29 -19 296 0 267 1 282 19 296 27
19 52 18 76 -6z"/>
</g>
</svg>
