<?xml version="1.0" standalone="no"?>
<!DOCTYPE svg PUBLIC "-//W3C//DTD SVG 20010904//EN"
 "http://www.w3.org/TR/2001/REC-SVG-20010904/DTD/svg10.dtd">
<svg version="1.0" xmlns="http://www.w3.org/2000/svg"
 width="256.000000pt" height="256.000000pt" viewBox="0 0 256.000000 256.000000"
 preserveAspectRatio="xMidYMid meet">
<metadata>
Created by potrace 1.13, written by Peter Selinger 2001-2015
</metadata>
<g transform="translate(0.000000,256.000000) scale(0.100000,-0.100000)"
fill="#000000" stroke="none">
<path d="M2204 1085 c-4 -10 -20 -15 -50 -15 -32 0 -44 -4 -44 -15 0 -10 -10
-15 -30 -15 -20 0 -30 -5 -30 -15 0 -11 -12 -15 -44 -15 -30 0 -46 -5 -50 -15
-3 -8 -15 -15 -27 -15 -15 0 -19 5 -15 15 4 12 -4 15 -46 15 -44 0 -49 2 -38
15 11 13 8 15 -15 15 -20 0 -26 4 -21 15 3 10 -1 15 -13 15 -11 0 -32 -21 -53
-53 -106 -159 -254 -241 -433 -239 -176 1 -318 81 -421 237 -34 51 -40 55 -75
55 -30 0 -37 -3 -33 -15 5 -11 -1 -15 -21 -15 -23 0 -26 -2 -15 -15 11 -13 6
-15 -38 -15 -42 0 -50 -3 -46 -15 4 -10 0 -15 -15 -15 -12 0 -24 7 -27 15 -4
10 -20 15 -50 15 -32 0 -44 4 -44 15 0 10 -10 15 -30 15 -20 0 -30 5 -30 15 0
10 -11 15 -35 15 -43 0 -44 -9 -14 -106 93 -301 358 -547 676 -626 124 -31
321 -31 448 0 327 81 606 349 686 660 10 41 19 81 19 89 0 18 -19 17 -26 -2z"/>
</g>
</svg>
